<svg xmlns="http://www.w3.org/2000/svg" x="0px" y="0px" width="60" height="60" viewBox="0 0 172 172"
                style=" fill:#000000;">
                <g fill="none" fill-rule="nonzero" stroke="none" stroke-width="1" stroke-linecap="butt"
                    stroke-linejoin="miter" stroke-miterlimit="10" stroke-dasharray="" stroke-dashoffset="0"
                    font-family="none" font-weight="none" font-size="none" text-anchor="none"
                    style="mix-blend-mode: normal">
                    <path d="M0,172v-172h172v172z" fill="none" stroke="none"></path>
                    <g>
                        <path
                            d="M38.141,148.35c-15.1059,0 -27.391,-12.2894 -27.391,-27.3953v-69.9094c0,-15.1059 12.2851,-27.3953 27.391,-27.3953h95.718c15.1059,0 27.391,12.2894 27.391,27.3953v69.9137c0,15.1059 -12.2851,27.3953 -27.391,27.3953h-95.718z"
                            fill="#f5ce85" stroke="none"></path>
                        <path
                            d="M133.859,25.8c13.9191,0 25.241,11.3219 25.241,25.241v69.918c0,13.9191 -11.3219,25.241 -25.241,25.241h-95.718c-13.9191,0 -25.241,-11.3219 -25.241,-25.241v-69.918c0,-13.9191 11.3219,-25.241 25.241,-25.241h95.718M133.859,21.5h-95.718c-16.3142,0 -29.541,13.2268 -29.541,29.541v69.918c0,16.3142 13.2268,29.541 29.541,29.541h95.718c16.3142,0 29.541,-13.2268 29.541,-29.541v-69.918c0,-16.3142 -13.2268,-29.541 -29.541,-29.541z"
                            fill="#967a44" stroke="none"></path>
                        <path
                            d="M161.25,101.05h-36.55c-13.0634,0 -23.65,10.5866 -23.65,23.65v0c0,13.0634 10.5866,23.65 23.65,23.65v0M10.75,101.05h36.55c13.0634,0 23.65,10.5866 23.65,23.65v0c0,13.0634 -10.5866,23.65 -23.65,23.65v0M161.25,70.95h-45.15c-8.3119,0 -15.05,-6.7381 -15.05,-15.05v0c0,-8.3119 6.7381,-15.05 15.05,-15.05h8.8623M122.55,100.8866v-32.0866M10.75,70.95h45.15c8.3119,0 15.05,-6.7381 15.05,-15.05v0c0,-8.3119 -6.7381,-15.05 -15.05,-15.05h-8.8623M49.45,100.8866v-32.0866"
                            fill="none" stroke="#967a44"></path>
                    </g>
                </g>
            </svg>